<svg width="28" height="28" viewBox="0 0 28 28" fill="none" xmlns="http://www.w3.org/2000/svg">
<path d="M11.6668 6.99992H16.3335C16.3335 6.38108 16.0877 5.78759 15.6501 5.35C15.2125 4.91242 14.619 4.66659 14.0002 4.66659C13.3813 4.66659 12.7878 4.91242 12.3502 5.35C11.9127 5.78759 11.6668 6.38108 11.6668 6.99992ZM9.3335 6.99992C9.3335 5.76224 9.82516 4.57526 10.7003 3.70009C11.5755 2.82492 12.7625 2.33325 14.0002 2.33325C15.2378 2.33325 16.4248 2.82492 17.3 3.70009C18.1752 4.57526 18.6668 5.76224 18.6668 6.99992H24.5002C24.8096 6.99992 25.1063 7.12284 25.3251 7.34163C25.5439 7.56042 25.6668 7.85717 25.6668 8.16659C25.6668 8.47601 25.5439 8.77275 25.3251 8.99154C25.1063 9.21034 24.8096 9.33325 24.5002 9.33325H23.4712L22.4375 21.3966C22.3381 22.5615 21.8051 23.6466 20.944 24.4373C20.0828 25.228 18.9563 25.6667 17.7872 25.6666H10.2132C9.04406 25.6667 7.91748 25.228 7.05634 24.4373C6.19519 23.6466 5.6622 22.5615 5.56283 21.3966L4.52916 9.33325H3.50016C3.19074 9.33325 2.894 9.21034 2.6752 8.99154C2.45641 8.77275 2.3335 8.47601 2.3335 8.16659C2.3335 7.85717 2.45641 7.56042 2.6752 7.34163C2.894 7.12284 3.19074 6.99992 3.50016 6.99992H9.3335ZM17.5002 13.9999C17.5002 13.6905 17.3772 13.3938 17.1585 13.175C16.9397 12.9562 16.6429 12.8333 16.3335 12.8333C16.0241 12.8333 15.7273 12.9562 15.5085 13.175C15.2897 13.3938 15.1668 13.6905 15.1668 13.9999V18.6666C15.1668 18.976 15.2897 19.2728 15.5085 19.4915C15.7273 19.7103 16.0241 19.8333 16.3335 19.8333C16.6429 19.8333 16.9397 19.7103 17.1585 19.4915C17.3772 19.2728 17.5002 18.976 17.5002 18.6666V13.9999ZM11.6668 12.8333C11.9762 12.8333 12.273 12.9562 12.4918 13.175C12.7106 13.3938 12.8335 13.6905 12.8335 13.9999V18.6666C12.8335 18.976 12.7106 19.2728 12.4918 19.4915C12.273 19.7103 11.9762 19.8333 11.6668 19.8333C11.3574 19.8333 11.0607 19.7103 10.8419 19.4915C10.6231 19.2728 10.5002 18.976 10.5002 18.6666V13.9999C10.5002 13.6905 10.6231 13.3938 10.8419 13.175C11.0607 12.9562 11.3574 12.8333 11.6668 12.8333ZM7.88683 21.1983C7.93653 21.7809 8.20319 22.3236 8.63401 22.719C9.06483 23.1144 9.62841 23.3336 10.2132 23.3333H17.7872C18.3715 23.333 18.9345 23.1136 19.3648 22.7182C19.7952 22.3229 20.0615 21.7805 20.1112 21.1983L21.1285 9.33325H6.87183L7.88683 21.1983Z" fill="#DB4444"/>
</svg>
