<svg width="270" height="230" viewBox="0 0 270 230" fill="none" xmlns="http://www.w3.org/2000/svg">
<rect x="0.5" y="0.5" width="269" height="229" rx="3.5" stroke="black" stroke-opacity="0.3"/>
<path opacity="0.3" d="M175.5 70C175.5 92.0914 157.591 110 135.5 110C113.409 110 95.5 92.0914 95.5 70C95.5 47.9086 113.409 30 135.5 30C157.591 30 175.5 47.9086 175.5 70ZM106.407 70C106.407 86.0675 119.432 99.0929 135.5 99.0929C151.568 99.0929 164.593 86.0675 164.593 70C164.593 53.9325 151.568 40.9071 135.5 40.9071C119.432 40.9071 106.407 53.9325 106.407 70Z" fill="#2F2E30"/>
<circle cx="135.5" cy="70" r="29" fill="black"/>
<path d="M149.642 55H142.988L143.822 63.3333C143.822 63.3333 145.488 65 147.988 65C149.301 65.0017 150.568 64.524 151.553 63.6567C151.657 63.5594 151.735 63.4372 151.779 63.3016C151.822 63.166 151.831 63.0214 151.803 62.8817L150.627 55.8333C150.587 55.6005 150.467 55.3891 150.286 55.2366C150.106 55.084 149.878 55.0002 149.642 55V55Z" stroke="white" stroke-width="2"/>
<path d="M142.988 55L143.822 63.3333C143.822 63.3333 142.155 65 139.655 65C137.155 65 135.488 63.3333 135.488 63.3333V55H142.988Z" stroke="#FAFAFA" stroke-width="2"/>
<path d="M135.489 55V63.3333C135.489 63.3333 133.822 65 131.322 65C128.822 65 127.155 63.3333 127.155 63.3333L127.989 55H135.489Z" stroke="#FAFAFA" stroke-width="2"/>
<path d="M127.988 55H121.337C121.1 54.9999 120.871 55.0838 120.69 55.2367C120.51 55.3896 120.389 55.6016 120.35 55.835L119.175 62.8833C119.147 63.0231 119.156 63.1676 119.2 63.3032C119.243 63.4387 119.321 63.5609 119.425 63.6583C119.972 64.1417 121.193 65.0017 122.988 65.0017C125.488 65.0017 127.155 63.335 127.155 63.335L127.988 55.0017V55Z" stroke="#FAFAFA" stroke-width="2"/>
<path d="M120.5 65V81.6667C120.5 82.5507 120.851 83.3986 121.476 84.0237C122.101 84.6488 122.949 85 123.833 85H147.167C148.051 85 148.899 84.6488 149.524 84.0237C150.149 83.3986 150.5 82.5507 150.5 81.6667V65" stroke="#FAFAFA" stroke-width="2"/>
<path d="M140.222 85.0001V75.0001C140.222 74.116 139.87 73.2682 139.245 72.6431C138.62 72.0179 137.772 71.6667 136.888 71.6667H133.555C132.671 71.6667 131.823 72.0179 131.198 72.6431C130.573 73.2682 130.222 74.116 130.222 75.0001V85.0001" stroke="#FAFAFA" stroke-width="2" stroke-miterlimit="16"/>
<path d="M101.511 137.727V161H96.5909V142.398H96.4545L91.125 145.739V141.375L96.8864 137.727H101.511ZM117.448 161.511C115.493 161.504 113.811 161.023 112.402 160.068C111.001 159.114 109.921 157.731 109.164 155.92C108.414 154.11 108.042 151.932 108.05 149.386C108.05 146.848 108.425 144.686 109.175 142.898C109.932 141.11 111.012 139.75 112.414 138.818C113.823 137.879 115.501 137.409 117.448 137.409C119.395 137.409 121.069 137.879 122.47 138.818C123.879 139.758 124.963 141.121 125.72 142.909C126.478 144.689 126.853 146.848 126.845 149.386C126.845 151.939 126.467 154.121 125.709 155.932C124.959 157.742 123.883 159.125 122.482 160.08C121.08 161.034 119.402 161.511 117.448 161.511ZM117.448 157.432C118.781 157.432 119.845 156.761 120.641 155.42C121.436 154.08 121.83 152.068 121.823 149.386C121.823 147.621 121.641 146.152 121.277 144.977C120.921 143.803 120.414 142.92 119.754 142.33C119.103 141.739 118.334 141.443 117.448 141.443C116.122 141.443 115.061 142.106 114.266 143.432C113.47 144.758 113.069 146.742 113.061 149.386C113.061 151.174 113.239 152.667 113.595 153.864C113.959 155.053 114.47 155.947 115.129 156.545C115.789 157.136 116.561 157.432 117.448 157.432ZM133.571 161.295C132.821 161.295 132.177 161.03 131.64 160.5C131.109 159.962 130.844 159.318 130.844 158.568C130.844 157.826 131.109 157.189 131.64 156.659C132.177 156.129 132.821 155.864 133.571 155.864C134.299 155.864 134.935 156.129 135.48 156.659C136.026 157.189 136.299 157.826 136.299 158.568C136.299 159.068 136.17 159.527 135.912 159.943C135.662 160.352 135.333 160.682 134.924 160.932C134.515 161.174 134.064 161.295 133.571 161.295ZM149.82 161.318C148.214 161.318 146.782 161.023 145.525 160.432C144.275 159.841 143.282 159.027 142.547 157.989C141.813 156.951 141.43 155.761 141.4 154.42H146.172C146.225 155.322 146.604 156.053 147.309 156.614C148.013 157.174 148.85 157.455 149.82 157.455C150.593 157.455 151.275 157.284 151.866 156.943C152.464 156.595 152.93 156.114 153.263 155.5C153.604 154.879 153.775 154.167 153.775 153.364C153.775 152.545 153.6 151.826 153.252 151.205C152.911 150.583 152.438 150.098 151.831 149.75C151.225 149.402 150.532 149.223 149.752 149.216C149.07 149.216 148.407 149.356 147.763 149.636C147.127 149.917 146.631 150.299 146.275 150.784L141.9 150L143.002 137.727H157.229V141.75H147.059L146.456 147.58H146.593C147.002 147.004 147.619 146.527 148.445 146.148C149.271 145.769 150.195 145.58 151.218 145.58C152.619 145.58 153.869 145.909 154.968 146.568C156.066 147.227 156.934 148.133 157.57 149.284C158.206 150.428 158.521 151.746 158.513 153.239C158.521 154.807 158.157 156.201 157.422 157.42C156.695 158.633 155.676 159.587 154.366 160.284C153.063 160.973 151.547 161.318 149.82 161.318ZM167.657 155.977L167.668 150.17H168.373L173.964 143.545H179.521L172.009 152.318H170.861L167.657 155.977ZM163.271 161V137.727H168.111V161H163.271ZM174.18 161L169.043 153.398L172.271 149.977L179.85 161H174.18Z" fill="black"/>
<path d="M55.8696 194.112C55.1336 194.112 54.4722 193.984 53.8856 193.728C53.3096 193.461 52.8562 193.099 52.5256 192.64C52.1949 192.171 52.0242 191.632 52.0136 191.024H53.5656C53.6189 191.547 53.8322 191.989 54.2056 192.352C54.5896 192.704 55.1442 192.88 55.8696 192.88C56.5629 192.88 57.1069 192.709 57.5016 192.368C57.9069 192.016 58.1096 191.568 58.1096 191.024C58.1096 190.597 57.9922 190.251 57.7576 189.984C57.5229 189.717 57.2296 189.515 56.8776 189.376C56.5256 189.237 56.0509 189.088 55.4536 188.928C54.7176 188.736 54.1256 188.544 53.6776 188.352C53.2402 188.16 52.8616 187.861 52.5416 187.456C52.2322 187.04 52.0776 186.485 52.0776 185.792C52.0776 185.184 52.2322 184.645 52.5416 184.176C52.8509 183.707 53.2829 183.344 53.8376 183.088C54.4029 182.832 55.0482 182.704 55.7736 182.704C56.8189 182.704 57.6722 182.965 58.3336 183.488C59.0056 184.011 59.3842 184.704 59.4696 185.568H57.8696C57.8162 185.141 57.5922 184.768 57.1976 184.448C56.8029 184.117 56.2802 183.952 55.6296 183.952C55.0216 183.952 54.5256 184.112 54.1416 184.432C53.7576 184.741 53.5656 185.179 53.5656 185.744C53.5656 186.149 53.6776 186.48 53.9016 186.736C54.1362 186.992 54.4189 187.189 54.7496 187.328C55.0909 187.456 55.5656 187.605 56.1736 187.776C56.9096 187.979 57.5016 188.181 57.9496 188.384C58.3976 188.576 58.7816 188.88 59.1016 189.296C59.4216 189.701 59.5816 190.256 59.5816 190.96C59.5816 191.504 59.4376 192.016 59.1496 192.496C58.8616 192.976 58.4349 193.365 57.8696 193.664C57.3042 193.963 56.6376 194.112 55.8696 194.112ZM61.1802 189.584C61.1802 188.688 61.3615 187.904 61.7242 187.232C62.0869 186.549 62.5829 186.021 63.2122 185.648C63.8522 185.275 64.5615 185.088 65.3402 185.088C66.1082 185.088 66.7749 185.253 67.3402 185.584C67.9055 185.915 68.3269 186.331 68.6042 186.832V185.232H70.0762V194H68.6042V192.368C68.3162 192.88 67.8842 193.307 67.3082 193.648C66.7429 193.979 66.0815 194.144 65.3242 194.144C64.5455 194.144 63.8415 193.952 63.2122 193.568C62.5829 193.184 62.0869 192.645 61.7242 191.952C61.3615 191.259 61.1802 190.469 61.1802 189.584ZM68.6042 189.6C68.6042 188.939 68.4709 188.363 68.2042 187.872C67.9375 187.381 67.5749 187.008 67.1162 186.752C66.6682 186.485 66.1722 186.352 65.6282 186.352C65.0842 186.352 64.5882 186.48 64.1402 186.736C63.6922 186.992 63.3349 187.365 63.0682 187.856C62.8015 188.347 62.6682 188.923 62.6682 189.584C62.6682 190.256 62.8015 190.843 63.0682 191.344C63.3349 191.835 63.6922 192.213 64.1402 192.48C64.5882 192.736 65.0842 192.864 65.6282 192.864C66.1722 192.864 66.6682 192.736 67.1162 192.48C67.5749 192.213 67.9375 191.835 68.2042 191.344C68.4709 190.843 68.6042 190.261 68.6042 189.6ZM73.9927 182.16V194H72.5367V182.16H73.9927ZM77.9302 182.16V194H76.4742V182.16H77.9302ZM88.4117 189.28C88.4117 189.557 88.3957 189.851 88.3637 190.16H81.3557C81.409 191.024 81.7024 191.701 82.2357 192.192C82.7797 192.672 83.4357 192.912 84.2037 192.912C84.833 192.912 85.3557 192.768 85.7717 192.48C86.1984 192.181 86.497 191.787 86.6677 191.296H88.2357C88.001 192.139 87.5317 192.827 86.8277 193.36C86.1237 193.883 85.249 194.144 84.2037 194.144C83.3717 194.144 82.625 193.957 81.9637 193.584C81.313 193.211 80.801 192.683 80.4277 192C80.0544 191.307 79.8677 190.507 79.8677 189.6C79.8677 188.693 80.049 187.899 80.4117 187.216C80.7744 186.533 81.281 186.011 81.9317 185.648C82.593 185.275 83.3504 185.088 84.2037 185.088C85.0357 185.088 85.7717 185.269 86.4117 185.632C87.0517 185.995 87.5424 186.496 87.8837 187.136C88.2357 187.765 88.4117 188.48 88.4117 189.28ZM86.9077 188.976C86.9077 188.421 86.785 187.947 86.5397 187.552C86.2944 187.147 85.9584 186.843 85.5317 186.64C85.1157 186.427 84.6517 186.32 84.1397 186.32C83.4037 186.32 82.7744 186.555 82.2517 187.024C81.7397 187.493 81.4464 188.144 81.3717 188.976H86.9077ZM91.7896 186.656C92.0456 186.155 92.4082 185.765 92.8776 185.488C93.3576 185.211 93.9389 185.072 94.6216 185.072V186.576H94.2376C92.6056 186.576 91.7896 187.461 91.7896 189.232V194H90.3336V185.232H91.7896V186.656ZM99.4063 194.144C98.7343 194.144 98.1316 194.032 97.5983 193.808C97.065 193.573 96.6436 193.253 96.3343 192.848C96.025 192.432 95.8543 191.957 95.8223 191.424H97.3263C97.369 191.861 97.5716 192.219 97.9343 192.496C98.3076 192.773 98.793 192.912 99.3903 192.912C99.945 192.912 100.382 192.789 100.702 192.544C101.022 192.299 101.182 191.989 101.182 191.616C101.182 191.232 101.012 190.949 100.67 190.768C100.329 190.576 99.801 190.389 99.0863 190.208C98.4356 190.037 97.9023 189.867 97.4863 189.696C97.081 189.515 96.729 189.253 96.4303 188.912C96.1423 188.56 95.9983 188.101 95.9983 187.536C95.9983 187.088 96.1316 186.677 96.3983 186.304C96.665 185.931 97.0436 185.637 97.5343 185.424C98.025 185.2 98.585 185.088 99.2143 185.088C100.185 185.088 100.969 185.333 101.566 185.824C102.164 186.315 102.484 186.987 102.526 187.84H101.07C101.038 187.381 100.852 187.013 100.51 186.736C100.18 186.459 99.7316 186.32 99.1663 186.32C98.6436 186.32 98.2276 186.432 97.9183 186.656C97.609 186.88 97.4543 187.173 97.4543 187.536C97.4543 187.824 97.545 188.064 97.7263 188.256C97.9183 188.437 98.153 188.587 98.4303 188.704C98.7183 188.811 99.113 188.933 99.6143 189.072C100.244 189.243 100.756 189.413 101.15 189.584C101.545 189.744 101.881 189.989 102.158 190.32C102.446 190.651 102.596 191.083 102.606 191.616C102.606 192.096 102.473 192.528 102.206 192.912C101.94 193.296 101.561 193.6 101.07 193.824C100.59 194.037 100.036 194.144 99.4063 194.144ZM108.383 189.584C108.383 188.688 108.565 187.904 108.927 187.232C109.29 186.549 109.786 186.021 110.415 185.648C111.055 185.275 111.765 185.088 112.543 185.088C113.311 185.088 113.978 185.253 114.543 185.584C115.109 185.915 115.53 186.331 115.807 186.832V185.232H117.279V194H115.807V192.368C115.519 192.88 115.087 193.307 114.511 193.648C113.946 193.979 113.285 194.144 112.527 194.144C111.749 194.144 111.045 193.952 110.415 193.568C109.786 193.184 109.29 192.645 108.927 191.952C108.565 191.259 108.383 190.469 108.383 189.584ZM115.807 189.6C115.807 188.939 115.674 188.363 115.407 187.872C115.141 187.381 114.778 187.008 114.319 186.752C113.871 186.485 113.375 186.352 112.831 186.352C112.287 186.352 111.791 186.48 111.343 186.736C110.895 186.992 110.538 187.365 110.271 187.856C110.005 188.347 109.871 188.923 109.871 189.584C109.871 190.256 110.005 190.843 110.271 191.344C110.538 191.835 110.895 192.213 111.343 192.48C111.791 192.736 112.287 192.864 112.831 192.864C113.375 192.864 113.871 192.736 114.319 192.48C114.778 192.213 115.141 191.835 115.407 191.344C115.674 190.843 115.807 190.261 115.807 189.6ZM119.196 189.6C119.196 188.693 119.377 187.904 119.74 187.232C120.102 186.549 120.604 186.021 121.244 185.648C121.894 185.275 122.636 185.088 123.468 185.088C124.545 185.088 125.43 185.349 126.124 185.872C126.828 186.395 127.292 187.12 127.516 188.048H125.948C125.798 187.515 125.505 187.093 125.068 186.784C124.641 186.475 124.108 186.32 123.468 186.32C122.636 186.32 121.964 186.608 121.452 187.184C120.94 187.749 120.684 188.555 120.684 189.6C120.684 190.656 120.94 191.472 121.452 192.048C121.964 192.624 122.636 192.912 123.468 192.912C124.108 192.912 124.641 192.763 125.068 192.464C125.494 192.165 125.788 191.739 125.948 191.184H127.516C127.281 192.08 126.812 192.8 126.108 193.344C125.404 193.877 124.524 194.144 123.468 194.144C122.636 194.144 121.894 193.957 121.244 193.584C120.604 193.211 120.102 192.683 119.74 192C119.377 191.317 119.196 190.517 119.196 189.6ZM131.235 186.432V191.6C131.235 192.027 131.325 192.331 131.507 192.512C131.688 192.683 132.003 192.768 132.451 192.768H133.523V194H132.211C131.4 194 130.792 193.813 130.387 193.44C129.981 193.067 129.779 192.453 129.779 191.6V186.432H128.643V185.232H129.779V183.024H131.235V185.232H133.523V186.432H131.235ZM136.039 183.808C135.761 183.808 135.527 183.712 135.335 183.52C135.143 183.328 135.047 183.093 135.047 182.816C135.047 182.539 135.143 182.304 135.335 182.112C135.527 181.92 135.761 181.824 136.039 181.824C136.305 181.824 136.529 181.92 136.711 182.112C136.903 182.304 136.999 182.539 136.999 182.816C136.999 183.093 136.903 183.328 136.711 183.52C136.529 183.712 136.305 183.808 136.039 183.808ZM136.743 185.232V194H135.287V185.232H136.743ZM142.488 192.656L145.208 185.232H146.76L143.32 194H141.624L138.184 185.232H139.752L142.488 192.656ZM156.193 189.28C156.193 189.557 156.177 189.851 156.145 190.16H149.137C149.19 191.024 149.484 191.701 150.017 192.192C150.561 192.672 151.217 192.912 151.985 192.912C152.614 192.912 153.137 192.768 153.553 192.48C153.98 192.181 154.278 191.787 154.449 191.296H156.017C155.782 192.139 155.313 192.827 154.609 193.36C153.905 193.883 153.03 194.144 151.985 194.144C151.153 194.144 150.406 193.957 149.745 193.584C149.094 193.211 148.582 192.683 148.209 192C147.836 191.307 147.649 190.507 147.649 189.6C147.649 188.693 147.83 187.899 148.193 187.216C148.556 186.533 149.062 186.011 149.713 185.648C150.374 185.275 151.132 185.088 151.985 185.088C152.817 185.088 153.553 185.269 154.193 185.632C154.833 185.995 155.324 186.496 155.665 187.136C156.017 187.765 156.193 188.48 156.193 189.28ZM154.689 188.976C154.689 188.421 154.566 187.947 154.321 187.552C154.076 187.147 153.74 186.843 153.313 186.64C152.897 186.427 152.433 186.32 151.921 186.32C151.185 186.32 150.556 186.555 150.033 187.024C149.521 187.493 149.228 188.144 149.153 188.976H154.689ZM166.204 194.144C165.383 194.144 164.636 193.957 163.964 193.584C163.303 193.211 162.78 192.683 162.396 192C162.023 191.307 161.836 190.507 161.836 189.6C161.836 188.704 162.028 187.915 162.412 187.232C162.807 186.539 163.34 186.011 164.012 185.648C164.684 185.275 165.436 185.088 166.268 185.088C167.1 185.088 167.852 185.275 168.524 185.648C169.196 186.011 169.724 186.533 170.108 187.216C170.503 187.899 170.7 188.693 170.7 189.6C170.7 190.507 170.498 191.307 170.092 192C169.698 192.683 169.159 193.211 168.476 193.584C167.794 193.957 167.036 194.144 166.204 194.144ZM166.204 192.864C166.727 192.864 167.218 192.741 167.676 192.496C168.135 192.251 168.503 191.883 168.78 191.392C169.068 190.901 169.212 190.304 169.212 189.6C169.212 188.896 169.074 188.299 168.796 187.808C168.519 187.317 168.156 186.955 167.708 186.72C167.26 186.475 166.775 186.352 166.252 186.352C165.719 186.352 165.228 186.475 164.78 186.72C164.343 186.955 163.991 187.317 163.724 187.808C163.458 188.299 163.324 188.896 163.324 189.6C163.324 190.315 163.452 190.917 163.708 191.408C163.975 191.899 164.327 192.267 164.764 192.512C165.202 192.747 165.682 192.864 166.204 192.864ZM180.391 185.232V194H178.935V192.704C178.657 193.152 178.268 193.504 177.767 193.76C177.276 194.005 176.732 194.128 176.135 194.128C175.452 194.128 174.839 193.989 174.295 193.712C173.751 193.424 173.319 192.997 172.999 192.432C172.689 191.867 172.535 191.179 172.535 190.368V185.232H173.975V190.176C173.975 191.04 174.193 191.707 174.631 192.176C175.068 192.635 175.665 192.864 176.423 192.864C177.201 192.864 177.815 192.624 178.263 192.144C178.711 191.664 178.935 190.965 178.935 190.048V185.232H180.391ZM184.305 186.656C184.561 186.155 184.924 185.765 185.393 185.488C185.873 185.211 186.455 185.072 187.137 185.072V186.576H186.753C185.121 186.576 184.305 187.461 184.305 189.232V194H182.849V185.232H184.305V186.656ZM196.188 194.144C195.516 194.144 194.913 194.032 194.38 193.808C193.846 193.573 193.425 193.253 193.116 192.848C192.806 192.432 192.636 191.957 192.604 191.424H194.108C194.15 191.861 194.353 192.219 194.716 192.496C195.089 192.773 195.574 192.912 196.172 192.912C196.726 192.912 197.164 192.789 197.484 192.544C197.804 192.299 197.964 191.989 197.964 191.616C197.964 191.232 197.793 190.949 197.452 190.768C197.11 190.576 196.582 190.389 195.868 190.208C195.217 190.037 194.684 189.867 194.268 189.696C193.862 189.515 193.51 189.253 193.212 188.912C192.924 188.56 192.78 188.101 192.78 187.536C192.78 187.088 192.913 186.677 193.18 186.304C193.446 185.931 193.825 185.637 194.316 185.424C194.806 185.2 195.366 185.088 195.996 185.088C196.966 185.088 197.75 185.333 198.348 185.824C198.945 186.315 199.265 186.987 199.308 187.84H197.852C197.82 187.381 197.633 187.013 197.292 186.736C196.961 186.459 196.513 186.32 195.948 186.32C195.425 186.32 195.009 186.432 194.7 186.656C194.39 186.88 194.236 187.173 194.236 187.536C194.236 187.824 194.326 188.064 194.508 188.256C194.7 188.437 194.934 188.587 195.212 188.704C195.5 188.811 195.894 188.933 196.396 189.072C197.025 189.243 197.537 189.413 197.932 189.584C198.326 189.744 198.662 189.989 198.94 190.32C199.228 190.651 199.377 191.083 199.388 191.616C199.388 192.096 199.254 192.528 198.988 192.912C198.721 193.296 198.342 193.6 197.852 193.824C197.372 194.037 196.817 194.144 196.188 194.144ZM202.195 183.808C201.918 183.808 201.683 183.712 201.491 183.52C201.299 183.328 201.203 183.093 201.203 182.816C201.203 182.539 201.299 182.304 201.491 182.112C201.683 181.92 201.918 181.824 202.195 181.824C202.462 181.824 202.686 181.92 202.867 182.112C203.059 182.304 203.155 182.539 203.155 182.816C203.155 183.093 203.059 183.328 202.867 183.52C202.686 183.712 202.462 183.808 202.195 183.808ZM202.899 185.232V194H201.443V185.232H202.899ZM207.156 186.432V191.6C207.156 192.027 207.247 192.331 207.428 192.512C207.61 192.683 207.924 192.768 208.372 192.768H209.444V194H208.132C207.322 194 206.714 193.813 206.308 193.44C205.903 193.067 205.7 192.453 205.7 191.6V186.432H204.564V185.232H205.7V183.024H207.156V185.232H209.444V186.432H207.156ZM219.209 189.28C219.209 189.557 219.193 189.851 219.161 190.16H212.153C212.206 191.024 212.499 191.701 213.033 192.192C213.577 192.672 214.233 192.912 215.001 192.912C215.63 192.912 216.153 192.768 216.569 192.48C216.995 192.181 217.294 191.787 217.465 191.296H219.033C218.798 192.139 218.329 192.827 217.625 193.36C216.921 193.883 216.046 194.144 215.001 194.144C214.169 194.144 213.422 193.957 212.761 193.584C212.11 193.211 211.598 192.683 211.225 192C210.851 191.307 210.665 190.507 210.665 189.6C210.665 188.693 210.846 187.899 211.209 187.216C211.571 186.533 212.078 186.011 212.729 185.648C213.39 185.275 214.147 185.088 215.001 185.088C215.833 185.088 216.569 185.269 217.209 185.632C217.849 185.995 218.339 186.496 218.681 187.136C219.033 187.765 219.209 188.48 219.209 189.28ZM217.705 188.976C217.705 188.421 217.582 187.947 217.337 187.552C217.091 187.147 216.755 186.843 216.329 186.64C215.913 186.427 215.449 186.32 214.937 186.32C214.201 186.32 213.571 186.555 213.049 187.024C212.537 187.493 212.243 188.144 212.169 188.976H217.705Z" fill="black"/>
</svg>
