<svg width="270" height="230" viewBox="0 0 270 230" fill="none" xmlns="http://www.w3.org/2000/svg">
<rect x="0.5" y="0.5" width="269" height="229" rx="3.5" stroke="black" stroke-opacity="0.3"/>
<path opacity="0.3" d="M175.5 70C175.5 92.0914 157.591 110 135.5 110C113.409 110 95.5 92.0914 95.5 70C95.5 47.9086 113.409 30 135.5 30C157.591 30 175.5 47.9086 175.5 70ZM106.407 70C106.407 86.0675 119.432 99.0929 135.5 99.0929C151.568 99.0929 164.593 86.0675 164.593 70C164.593 53.9325 151.568 40.9071 135.5 40.9071C119.432 40.9071 106.407 53.9325 106.407 70Z" fill="#2F2E30"/>
<circle cx="135.5" cy="70" r="29" fill="black"/>
<path d="M135.928 79.7729H136.428C137.052 79.7729 137.651 79.5249 138.093 79.0835C138.534 78.642 138.782 78.0428 138.782 77.4185C138.782 76.794 138.534 76.195 138.093 75.7534C137.651 75.3119 137.052 75.064 136.428 75.064H135.928V79.7729ZM134.573 69.5005C133.949 69.5005 133.35 69.7484 132.908 70.1899C132.467 70.6315 132.219 71.2306 132.219 71.855C132.219 72.4791 132.467 73.0776 132.908 73.519C133.35 73.9606 133.949 74.2095 134.573 74.2095H135.073V69.5005H134.573ZM135.073 75.064H134.573C133.722 75.0639 132.906 74.7253 132.304 74.1235C131.702 73.5218 131.364 72.7058 131.364 71.855C131.364 71.004 131.702 70.1872 132.304 69.5854C132.906 68.9837 133.722 68.646 134.573 68.646H135.073V67.7183H135.928V68.646H136.428C137.091 68.646 137.739 68.8517 138.281 69.2349C138.755 69.5701 139.128 70.0264 139.362 70.5542L139.454 70.7856C139.473 70.8383 139.48 70.894 139.478 70.9497C139.475 71.0057 139.461 71.0612 139.437 71.1118C139.412 71.1624 139.379 71.2081 139.337 71.2456C139.295 71.2831 139.246 71.3119 139.193 71.3306C139.14 71.3492 139.084 71.357 139.028 71.354C138.972 71.351 138.918 71.3371 138.867 71.313C138.765 71.2642 138.686 71.1766 138.648 71.0698C138.486 70.6108 138.185 70.2132 137.787 69.9321C137.389 69.6511 136.915 69.5004 136.428 69.5005H135.928V74.2095H136.428C137.279 74.2095 138.095 74.5471 138.697 75.1489C139.299 75.7507 139.637 76.5674 139.637 77.4185C139.637 78.2693 139.299 79.0853 138.697 79.687C138.095 80.2888 137.279 80.6274 136.428 80.6274H135.928V81.5542H135.073V80.6274H134.573C133.91 80.6274 133.262 80.4218 132.72 80.0386C132.178 79.6554 131.768 79.1134 131.547 78.4878L131.542 78.4741C131.522 78.4209 131.512 78.3641 131.514 78.3071C131.515 78.2501 131.529 78.1939 131.553 78.1421C131.577 78.0902 131.611 78.0439 131.653 78.0054C131.696 77.9669 131.745 77.9365 131.799 77.9175C131.853 77.8985 131.91 77.8906 131.967 77.894C132.024 77.8975 132.08 77.9127 132.131 77.938C132.182 77.9633 132.227 77.9984 132.265 78.0415C132.302 78.0848 132.33 78.1356 132.348 78.1899L132.35 78.1968L132.353 78.2036C132.677 79.1183 133.548 79.7729 134.573 79.7729H135.073V75.064Z" fill="#FAFAFA" stroke="#FAFAFA"/>
<path d="M135.536 53.8093C139.438 53.8093 142.998 55.0427 145.217 56.1199L145.345 56.1824C145.784 56.3997 146.164 56.6083 146.477 56.7947L143.346 61.3728L143.114 61.7107L143.401 62.0046C145.34 63.9862 147.17 66.5167 148.48 69.1921C149.793 71.8723 150.568 74.6626 150.441 77.1736C150.316 79.6637 149.306 81.8865 147.017 83.5037C144.705 85.1365 141.038 86.1882 135.536 86.1882C130.033 86.1882 126.355 85.1546 124.028 83.5437C121.725 81.9486 120.699 79.7544 120.558 77.2859C120.415 74.7954 121.176 72.0152 122.483 69.3201C123.789 66.6299 125.623 64.0593 127.581 61.9988L127.859 61.7068L127.633 61.3738L124.522 56.7966C124.68 56.704 124.854 56.6074 125.043 56.5066L125.045 56.5056C125.235 56.4032 125.441 56.2977 125.661 56.1902L125.72 56.1619C127.956 55.0758 131.584 53.8094 135.536 53.8093ZM142.457 62.698C138.108 64.3797 132.87 64.3799 128.521 62.7L128.206 62.5779L127.976 62.8259C126.158 64.7853 124.466 67.19 123.251 69.6931C122.06 72.1489 121.369 74.6146 121.396 76.8035L121.41 77.2371C121.538 79.4716 122.449 81.4115 124.513 82.8416C126.639 84.3135 130.12 85.3337 135.535 85.3337C140.946 85.3337 144.413 84.2955 146.521 82.8054C148.571 81.3567 149.473 79.3907 149.587 77.1296C149.704 74.813 148.988 72.1696 147.712 69.5671L147.711 69.5652L147.477 69.1042C146.286 66.8112 144.779 64.6957 143 62.8201L142.77 62.5769L142.457 62.698ZM144.263 57.0808C141.993 57.2442 139.36 57.7296 136.764 58.4197L135.655 58.7273C133.795 59.2646 131.717 59.2269 129.729 58.9001L129.334 58.8308C128.805 58.7327 128.279 58.6165 127.758 58.4812L126.473 58.1472L127.219 59.2458L128.999 61.8669L129.091 62.0027L129.245 62.0574C133.169 63.4544 137.8 63.4544 141.725 62.0593L141.878 62.0046L141.97 61.8699L144.712 57.8621L145.297 57.0066L144.263 57.0808ZM135.535 54.6638C132.253 54.6639 129.206 55.5778 127.08 56.4802L125.801 57.0232L127.133 57.4197C127.89 57.6448 128.682 57.8409 129.487 57.99H129.488C131.523 58.3648 133.608 58.43 135.417 57.906L135.418 57.905C137.386 57.3317 139.388 56.8813 141.412 56.5554L141.477 55.5828C139.735 55.0585 137.69 54.6638 135.535 54.6638Z" fill="#FAFAFA" stroke="#FAFAFA"/>
<path d="M106.386 161V157.455L114.67 149.784C115.375 149.102 115.966 148.489 116.443 147.943C116.928 147.398 117.295 146.864 117.545 146.341C117.795 145.811 117.92 145.239 117.92 144.625C117.92 143.943 117.765 143.356 117.455 142.864C117.144 142.364 116.72 141.981 116.182 141.716C115.644 141.443 115.034 141.307 114.352 141.307C113.64 141.307 113.019 141.451 112.489 141.739C111.958 142.027 111.549 142.439 111.261 142.977C110.973 143.515 110.83 144.155 110.83 144.898H106.159C106.159 143.375 106.504 142.053 107.193 140.932C107.883 139.811 108.848 138.943 110.091 138.33C111.333 137.716 112.765 137.409 114.386 137.409C116.053 137.409 117.504 137.705 118.739 138.295C119.981 138.879 120.947 139.689 121.636 140.727C122.326 141.765 122.67 142.955 122.67 144.295C122.67 145.174 122.496 146.042 122.148 146.898C121.807 147.754 121.197 148.705 120.318 149.75C119.439 150.788 118.201 152.034 116.602 153.489L113.205 156.818V156.977H122.977V161H106.386ZM136.323 161.318C134.717 161.318 133.285 161.023 132.027 160.432C130.777 159.841 129.785 159.027 129.05 157.989C128.315 156.951 127.932 155.761 127.902 154.42H132.675C132.728 155.322 133.107 156.053 133.811 156.614C134.516 157.174 135.353 157.455 136.323 157.455C137.095 157.455 137.777 157.284 138.368 156.943C138.967 156.595 139.432 156.114 139.766 155.5C140.107 154.879 140.277 154.167 140.277 153.364C140.277 152.545 140.103 151.826 139.754 151.205C139.414 150.583 138.94 150.098 138.334 149.75C137.728 149.402 137.035 149.223 136.254 149.216C135.573 149.216 134.91 149.356 134.266 149.636C133.629 149.917 133.133 150.299 132.777 150.784L128.402 150L129.504 137.727H143.732V141.75H133.561L132.959 147.58H133.095C133.504 147.004 134.122 146.527 134.948 146.148C135.773 145.769 136.698 145.58 137.72 145.58C139.122 145.58 140.372 145.909 141.47 146.568C142.569 147.227 143.436 148.133 144.073 149.284C144.709 150.428 145.023 151.746 145.016 153.239C145.023 154.807 144.66 156.201 143.925 157.42C143.198 158.633 142.179 159.587 140.868 160.284C139.565 160.973 138.05 161.318 136.323 161.318ZM154.159 155.977L154.171 150.17H154.875L160.466 143.545H166.023L158.512 152.318H157.364L154.159 155.977ZM149.773 161V137.727H154.614V161H149.773ZM160.682 161L155.546 153.398L158.773 149.977L166.353 161H160.682Z" fill="black"/>
<path d="M36.824 191.52H31.96L31.064 194H29.528L33.56 182.912H35.24L39.256 194H37.72L36.824 191.52ZM36.408 190.336L34.392 184.704L32.376 190.336H36.408ZM45.2853 185.072C46.3519 185.072 47.2159 185.397 47.8773 186.048C48.5386 186.688 48.8693 187.616 48.8693 188.832V194H47.4293V189.04C47.4293 188.165 47.2106 187.499 46.7733 187.04C46.3359 186.571 45.7386 186.336 44.9813 186.336C44.2133 186.336 43.5999 186.576 43.1413 187.056C42.6933 187.536 42.4693 188.235 42.4693 189.152V194H41.0133V185.232H42.4693V186.48C42.7573 186.032 43.1466 185.685 43.6373 185.44C44.1386 185.195 44.6879 185.072 45.2853 185.072ZM59.0236 185.232V194H57.5676V192.704C57.2903 193.152 56.901 193.504 56.3996 193.76C55.909 194.005 55.365 194.128 54.7676 194.128C54.085 194.128 53.4716 193.989 52.9276 193.712C52.3836 193.424 51.9516 192.997 51.6316 192.432C51.3223 191.867 51.1676 191.179 51.1676 190.368V185.232H52.6076V190.176C52.6076 191.04 52.8263 191.707 53.2636 192.176C53.701 192.635 54.2983 192.864 55.0556 192.864C55.8343 192.864 56.4476 192.624 56.8956 192.144C57.3436 191.664 57.5676 190.965 57.5676 190.048V185.232H59.0236ZM60.938 189.584C60.938 188.688 61.1193 187.904 61.482 187.232C61.8447 186.549 62.3407 186.021 62.97 185.648C63.61 185.275 64.3193 185.088 65.098 185.088C65.866 185.088 66.5327 185.253 67.098 185.584C67.6633 185.915 68.0847 186.331 68.362 186.832V185.232H69.834V194H68.362V192.368C68.074 192.88 67.642 193.307 67.066 193.648C66.5007 193.979 65.8393 194.144 65.082 194.144C64.3033 194.144 63.5993 193.952 62.97 193.568C62.3407 193.184 61.8447 192.645 61.482 191.952C61.1193 191.259 60.938 190.469 60.938 189.584ZM68.362 189.6C68.362 188.939 68.2287 188.363 67.962 187.872C67.6953 187.381 67.3327 187.008 66.874 186.752C66.426 186.485 65.93 186.352 65.386 186.352C64.842 186.352 64.346 186.48 63.898 186.736C63.45 186.992 63.0927 187.365 62.826 187.856C62.5593 188.347 62.426 188.923 62.426 189.584C62.426 190.256 62.5593 190.843 62.826 191.344C63.0927 191.835 63.45 192.213 63.898 192.48C64.346 192.736 64.842 192.864 65.386 192.864C65.93 192.864 66.426 192.736 66.874 192.48C67.3327 192.213 67.6953 191.835 67.962 191.344C68.2287 190.843 68.362 190.261 68.362 189.6ZM73.7505 182.16V194H72.2945V182.16H73.7505ZM84.1136 185.088C84.871 185.088 85.5323 185.253 86.0976 185.584C86.6736 185.915 87.1003 186.331 87.3776 186.832V185.232H88.8496V194.192C88.8496 194.992 88.679 195.701 88.3376 196.32C87.9963 196.949 87.5056 197.44 86.8656 197.792C86.2363 198.144 85.5003 198.32 84.6576 198.32C83.5056 198.32 82.5456 198.048 81.7776 197.504C81.0096 196.96 80.5563 196.219 80.4176 195.28H81.8576C82.0176 195.813 82.3483 196.24 82.8496 196.56C83.351 196.891 83.9536 197.056 84.6576 197.056C85.4576 197.056 86.1083 196.805 86.6096 196.304C87.1216 195.803 87.3776 195.099 87.3776 194.192V192.352C87.0896 192.864 86.663 193.291 86.0976 193.632C85.5323 193.973 84.871 194.144 84.1136 194.144C83.335 194.144 82.6256 193.952 81.9856 193.568C81.3563 193.184 80.8603 192.645 80.4976 191.952C80.135 191.259 79.9536 190.469 79.9536 189.584C79.9536 188.688 80.135 187.904 80.4976 187.232C80.8603 186.549 81.3563 186.021 81.9856 185.648C82.6256 185.275 83.335 185.088 84.1136 185.088ZM87.3776 189.6C87.3776 188.939 87.2443 188.363 86.9776 187.872C86.711 187.381 86.3483 187.008 85.8896 186.752C85.4416 186.485 84.9456 186.352 84.4016 186.352C83.8576 186.352 83.3616 186.48 82.9136 186.736C82.4656 186.992 82.1083 187.365 81.8416 187.856C81.575 188.347 81.4416 188.923 81.4416 189.584C81.4416 190.256 81.575 190.843 81.8416 191.344C82.1083 191.835 82.4656 192.213 82.9136 192.48C83.3616 192.736 83.8576 192.864 84.4016 192.864C84.9456 192.864 85.4416 192.736 85.8896 192.48C86.3483 192.213 86.711 191.835 86.9776 191.344C87.2443 190.843 87.3776 190.261 87.3776 189.6ZM92.7661 186.656C93.0221 186.155 93.3848 185.765 93.8541 185.488C94.3341 185.211 94.9155 185.072 95.5981 185.072V186.576H95.2141C93.5821 186.576 92.7661 187.461 92.7661 189.232V194H91.3101V185.232H92.7661V186.656ZM101.103 194.144C100.282 194.144 99.5349 193.957 98.8629 193.584C98.2015 193.211 97.6789 192.683 97.2949 192C96.9215 191.307 96.7349 190.507 96.7349 189.6C96.7349 188.704 96.9269 187.915 97.3109 187.232C97.7055 186.539 98.2389 186.011 98.9109 185.648C99.5829 185.275 100.335 185.088 101.167 185.088C101.999 185.088 102.751 185.275 103.423 185.648C104.095 186.011 104.623 186.533 105.007 187.216C105.402 187.899 105.599 188.693 105.599 189.6C105.599 190.507 105.396 191.307 104.991 192C104.596 192.683 104.058 193.211 103.375 193.584C102.692 193.957 101.935 194.144 101.103 194.144ZM101.103 192.864C101.626 192.864 102.116 192.741 102.575 192.496C103.034 192.251 103.402 191.883 103.679 191.392C103.967 190.901 104.111 190.304 104.111 189.6C104.111 188.896 103.972 188.299 103.695 187.808C103.418 187.317 103.055 186.955 102.607 186.72C102.159 186.475 101.674 186.352 101.151 186.352C100.618 186.352 100.127 186.475 99.6789 186.72C99.2415 186.955 98.8895 187.317 98.6229 187.808C98.3562 188.299 98.2229 188.896 98.2229 189.6C98.2229 190.315 98.3509 190.917 98.6069 191.408C98.8735 191.899 99.2255 192.267 99.6629 192.512C100.1 192.747 100.58 192.864 101.103 192.864ZM110.617 194.144C109.945 194.144 109.343 194.032 108.809 193.808C108.276 193.573 107.855 193.253 107.545 192.848C107.236 192.432 107.065 191.957 107.033 191.424H108.537C108.58 191.861 108.783 192.219 109.145 192.496C109.519 192.773 110.004 192.912 110.601 192.912C111.156 192.912 111.593 192.789 111.913 192.544C112.233 192.299 112.393 191.989 112.393 191.616C112.393 191.232 112.223 190.949 111.881 190.768C111.54 190.576 111.012 190.389 110.297 190.208C109.647 190.037 109.113 189.867 108.697 189.696C108.292 189.515 107.94 189.253 107.641 188.912C107.353 188.56 107.209 188.101 107.209 187.536C107.209 187.088 107.343 186.677 107.609 186.304C107.876 185.931 108.255 185.637 108.745 185.424C109.236 185.2 109.796 185.088 110.425 185.088C111.396 185.088 112.18 185.333 112.777 185.824C113.375 186.315 113.695 186.987 113.737 187.84H112.281C112.249 187.381 112.063 187.013 111.721 186.736C111.391 186.459 110.943 186.32 110.377 186.32C109.855 186.32 109.439 186.432 109.129 186.656C108.82 186.88 108.665 187.173 108.665 187.536C108.665 187.824 108.756 188.064 108.937 188.256C109.129 188.437 109.364 188.587 109.641 188.704C109.929 188.811 110.324 188.933 110.825 189.072C111.455 189.243 111.967 189.413 112.361 189.584C112.756 189.744 113.092 189.989 113.369 190.32C113.657 190.651 113.807 191.083 113.817 191.616C113.817 192.096 113.684 192.528 113.417 192.912C113.151 193.296 112.772 193.6 112.281 193.824C111.801 194.037 111.247 194.144 110.617 194.144ZM118.977 194.144C118.305 194.144 117.702 194.032 117.169 193.808C116.635 193.573 116.214 193.253 115.905 192.848C115.595 192.432 115.425 191.957 115.393 191.424H116.897C116.939 191.861 117.142 192.219 117.505 192.496C117.878 192.773 118.363 192.912 118.961 192.912C119.515 192.912 119.953 192.789 120.273 192.544C120.593 192.299 120.753 191.989 120.753 191.616C120.753 191.232 120.582 190.949 120.241 190.768C119.899 190.576 119.371 190.389 118.657 190.208C118.006 190.037 117.473 189.867 117.057 189.696C116.651 189.515 116.299 189.253 116.001 188.912C115.713 188.56 115.569 188.101 115.569 187.536C115.569 187.088 115.702 186.677 115.969 186.304C116.235 185.931 116.614 185.637 117.105 185.424C117.595 185.2 118.155 185.088 118.785 185.088C119.755 185.088 120.539 185.333 121.137 185.824C121.734 186.315 122.054 186.987 122.097 187.84H120.641C120.609 187.381 120.422 187.013 120.081 186.736C119.75 186.459 119.302 186.32 118.737 186.32C118.214 186.32 117.798 186.432 117.489 186.656C117.179 186.88 117.025 187.173 117.025 187.536C117.025 187.824 117.115 188.064 117.297 188.256C117.489 188.437 117.723 188.587 118.001 188.704C118.289 188.811 118.683 188.933 119.185 189.072C119.814 189.243 120.326 189.413 120.721 189.584C121.115 189.744 121.451 189.989 121.729 190.32C122.017 190.651 122.166 191.083 122.177 191.616C122.177 192.096 122.043 192.528 121.777 192.912C121.51 193.296 121.131 193.6 120.641 193.824C120.161 194.037 119.606 194.144 118.977 194.144ZM131.602 194.144C130.93 194.144 130.327 194.032 129.794 193.808C129.26 193.573 128.839 193.253 128.53 192.848C128.22 192.432 128.05 191.957 128.018 191.424H129.522C129.564 191.861 129.767 192.219 130.13 192.496C130.503 192.773 130.988 192.912 131.586 192.912C132.14 192.912 132.578 192.789 132.898 192.544C133.218 192.299 133.378 191.989 133.378 191.616C133.378 191.232 133.207 190.949 132.866 190.768C132.524 190.576 131.996 190.389 131.282 190.208C130.631 190.037 130.098 189.867 129.682 189.696C129.276 189.515 128.924 189.253 128.626 188.912C128.338 188.56 128.194 188.101 128.194 187.536C128.194 187.088 128.327 186.677 128.594 186.304C128.86 185.931 129.239 185.637 129.73 185.424C130.22 185.2 130.78 185.088 131.41 185.088C132.38 185.088 133.164 185.333 133.762 185.824C134.359 186.315 134.679 186.987 134.722 187.84H133.266C133.234 187.381 133.047 187.013 132.706 186.736C132.375 186.459 131.927 186.32 131.362 186.32C130.839 186.32 130.423 186.432 130.114 186.656C129.804 186.88 129.65 187.173 129.65 187.536C129.65 187.824 129.74 188.064 129.922 188.256C130.114 188.437 130.348 188.587 130.626 188.704C130.914 188.811 131.308 188.933 131.81 189.072C132.439 189.243 132.951 189.413 133.346 189.584C133.74 189.744 134.076 189.989 134.354 190.32C134.642 190.651 134.791 191.083 134.802 191.616C134.802 192.096 134.668 192.528 134.402 192.912C134.135 193.296 133.756 193.6 133.266 193.824C132.786 194.037 132.231 194.144 131.602 194.144ZM136.313 189.584C136.313 188.688 136.494 187.904 136.857 187.232C137.22 186.549 137.716 186.021 138.345 185.648C138.985 185.275 139.694 185.088 140.473 185.088C141.241 185.088 141.908 185.253 142.473 185.584C143.038 185.915 143.46 186.331 143.737 186.832V185.232H145.209V194H143.737V192.368C143.449 192.88 143.017 193.307 142.441 193.648C141.876 193.979 141.214 194.144 140.457 194.144C139.678 194.144 138.974 193.952 138.345 193.568C137.716 193.184 137.22 192.645 136.857 191.952C136.494 191.259 136.313 190.469 136.313 189.584ZM143.737 189.6C143.737 188.939 143.604 188.363 143.337 187.872C143.07 187.381 142.708 187.008 142.249 186.752C141.801 186.485 141.305 186.352 140.761 186.352C140.217 186.352 139.721 186.48 139.273 186.736C138.825 186.992 138.468 187.365 138.201 187.856C137.934 188.347 137.801 188.923 137.801 189.584C137.801 190.256 137.934 190.843 138.201 191.344C138.468 191.835 138.825 192.213 139.273 192.48C139.721 192.736 140.217 192.864 140.761 192.864C141.305 192.864 141.801 192.736 142.249 192.48C142.708 192.213 143.07 191.835 143.337 191.344C143.604 190.843 143.737 190.261 143.737 189.6ZM149.126 182.16V194H147.67V182.16H149.126ZM159.607 189.28C159.607 189.557 159.591 189.851 159.559 190.16H152.551C152.604 191.024 152.898 191.701 153.431 192.192C153.975 192.672 154.631 192.912 155.399 192.912C156.028 192.912 156.551 192.768 156.967 192.48C157.394 192.181 157.692 191.787 157.863 191.296H159.431C159.196 192.139 158.727 192.827 158.023 193.36C157.319 193.883 156.444 194.144 155.399 194.144C154.567 194.144 153.82 193.957 153.159 193.584C152.508 193.211 151.996 192.683 151.623 192C151.25 191.307 151.063 190.507 151.063 189.6C151.063 188.693 151.244 187.899 151.607 187.216C151.97 186.533 152.476 186.011 153.127 185.648C153.788 185.275 154.546 185.088 155.399 185.088C156.231 185.088 156.967 185.269 157.607 185.632C158.247 185.995 158.738 186.496 159.079 187.136C159.431 187.765 159.607 188.48 159.607 189.28ZM158.103 188.976C158.103 188.421 157.98 187.947 157.735 187.552C157.49 187.147 157.154 186.843 156.727 186.64C156.311 186.427 155.847 186.32 155.335 186.32C154.599 186.32 153.97 186.555 153.447 187.024C152.935 187.493 152.642 188.144 152.567 188.976H158.103ZM166.547 183.808C166.269 183.808 166.035 183.712 165.843 183.52C165.651 183.328 165.555 183.093 165.555 182.816C165.555 182.539 165.651 182.304 165.843 182.112C166.035 181.92 166.269 181.824 166.547 181.824C166.813 181.824 167.037 181.92 167.219 182.112C167.411 182.304 167.507 182.539 167.507 182.816C167.507 183.093 167.411 183.328 167.219 183.52C167.037 183.712 166.813 183.808 166.547 183.808ZM167.251 185.232V194H165.795V185.232H167.251ZM174.004 185.072C175.071 185.072 175.935 185.397 176.596 186.048C177.257 186.688 177.588 187.616 177.588 188.832V194H176.148V189.04C176.148 188.165 175.929 187.499 175.492 187.04C175.055 186.571 174.457 186.336 173.7 186.336C172.932 186.336 172.319 186.576 171.86 187.056C171.412 187.536 171.188 188.235 171.188 189.152V194H169.732V185.232H171.188V186.48C171.476 186.032 171.865 185.685 172.356 185.44C172.857 185.195 173.407 185.072 174.004 185.072ZM188.056 194.144C187.235 194.144 186.488 193.957 185.816 193.584C185.155 193.211 184.632 192.683 184.248 192C183.875 191.307 183.688 190.507 183.688 189.6C183.688 188.704 183.88 187.915 184.264 187.232C184.659 186.539 185.192 186.011 185.864 185.648C186.536 185.275 187.288 185.088 188.12 185.088C188.952 185.088 189.704 185.275 190.376 185.648C191.048 186.011 191.576 186.533 191.96 187.216C192.355 187.899 192.552 188.693 192.552 189.6C192.552 190.507 192.349 191.307 191.944 192C191.549 192.683 191.011 193.211 190.328 193.584C189.645 193.957 188.888 194.144 188.056 194.144ZM188.056 192.864C188.579 192.864 189.069 192.741 189.528 192.496C189.987 192.251 190.355 191.883 190.632 191.392C190.92 190.901 191.064 190.304 191.064 189.6C191.064 188.896 190.925 188.299 190.648 187.808C190.371 187.317 190.008 186.955 189.56 186.72C189.112 186.475 188.627 186.352 188.104 186.352C187.571 186.352 187.08 186.475 186.632 186.72C186.195 186.955 185.843 187.317 185.576 187.808C185.309 188.299 185.176 188.896 185.176 189.6C185.176 190.315 185.304 190.917 185.56 191.408C185.827 191.899 186.179 192.267 186.616 192.512C187.053 192.747 187.533 192.864 188.056 192.864ZM202.242 185.232V194H200.786V192.704C200.509 193.152 200.12 193.504 199.618 193.76C199.128 194.005 198.584 194.128 197.986 194.128C197.304 194.128 196.69 193.989 196.146 193.712C195.602 193.424 195.17 192.997 194.85 192.432C194.541 191.867 194.386 191.179 194.386 190.368V185.232H195.826V190.176C195.826 191.04 196.045 191.707 196.482 192.176C196.92 192.635 197.517 192.864 198.274 192.864C199.053 192.864 199.666 192.624 200.114 192.144C200.562 191.664 200.786 190.965 200.786 190.048V185.232H202.242ZM206.157 186.656C206.413 186.155 206.775 185.765 207.245 185.488C207.725 185.211 208.306 185.072 208.989 185.072V186.576H208.605C206.973 186.576 206.157 187.461 206.157 189.232V194H204.701V185.232H206.157V186.656ZM218.039 194.144C217.367 194.144 216.764 194.032 216.231 193.808C215.698 193.573 215.276 193.253 214.967 192.848C214.658 192.432 214.487 191.957 214.455 191.424H215.959C216.002 191.861 216.204 192.219 216.567 192.496C216.94 192.773 217.426 192.912 218.023 192.912C218.578 192.912 219.015 192.789 219.335 192.544C219.655 192.299 219.815 191.989 219.815 191.616C219.815 191.232 219.644 190.949 219.303 190.768C218.962 190.576 218.434 190.389 217.719 190.208C217.068 190.037 216.535 189.867 216.119 189.696C215.714 189.515 215.362 189.253 215.063 188.912C214.775 188.56 214.631 188.101 214.631 187.536C214.631 187.088 214.764 186.677 215.031 186.304C215.298 185.931 215.676 185.637 216.167 185.424C216.658 185.2 217.218 185.088 217.847 185.088C218.818 185.088 219.602 185.333 220.199 185.824C220.796 186.315 221.116 186.987 221.159 187.84H219.703C219.671 187.381 219.484 187.013 219.143 186.736C218.812 186.459 218.364 186.32 217.799 186.32C217.276 186.32 216.86 186.432 216.551 186.656C216.242 186.88 216.087 187.173 216.087 187.536C216.087 187.824 216.178 188.064 216.359 188.256C216.551 188.437 216.786 188.587 217.063 188.704C217.351 188.811 217.746 188.933 218.247 189.072C218.876 189.243 219.388 189.413 219.783 189.584C220.178 189.744 220.514 189.989 220.791 190.32C221.079 190.651 221.228 191.083 221.239 191.616C221.239 192.096 221.106 192.528 220.839 192.912C220.572 193.296 220.194 193.6 219.703 193.824C219.223 194.037 218.668 194.144 218.039 194.144ZM224.047 183.808C223.769 183.808 223.535 183.712 223.343 183.52C223.151 183.328 223.055 183.093 223.055 182.816C223.055 182.539 223.151 182.304 223.343 182.112C223.535 181.92 223.769 181.824 224.047 181.824C224.313 181.824 224.537 181.92 224.719 182.112C224.911 182.304 225.007 182.539 225.007 182.816C225.007 183.093 224.911 183.328 224.719 183.52C224.537 183.712 224.313 183.808 224.047 183.808ZM224.751 185.232V194H223.295V185.232H224.751ZM229.008 186.432V191.6C229.008 192.027 229.099 192.331 229.28 192.512C229.461 192.683 229.776 192.768 230.224 192.768H231.296V194H229.984C229.173 194 228.565 193.813 228.16 193.44C227.755 193.067 227.552 192.453 227.552 191.6V186.432H226.416V185.232H227.552V183.024H229.008V185.232H231.296V186.432H229.008ZM241.06 189.28C241.06 189.557 241.044 189.851 241.012 190.16H234.004C234.057 191.024 234.351 191.701 234.884 192.192C235.428 192.672 236.084 192.912 236.852 192.912C237.481 192.912 238.004 192.768 238.42 192.48C238.847 192.181 239.145 191.787 239.316 191.296H240.884C240.649 192.139 240.18 192.827 239.476 193.36C238.772 193.883 237.897 194.144 236.852 194.144C236.02 194.144 235.273 193.957 234.612 193.584C233.961 193.211 233.449 192.683 233.076 192C232.703 191.307 232.516 190.507 232.516 189.6C232.516 188.693 232.697 187.899 233.06 187.216C233.423 186.533 233.929 186.011 234.58 185.648C235.241 185.275 235.999 185.088 236.852 185.088C237.684 185.088 238.42 185.269 239.06 185.632C239.7 185.995 240.191 186.496 240.532 187.136C240.884 187.765 241.06 188.48 241.06 189.28ZM239.556 188.976C239.556 188.421 239.433 187.947 239.188 187.552C238.943 187.147 238.607 186.843 238.18 186.64C237.764 186.427 237.3 186.32 236.788 186.32C236.052 186.32 235.423 186.555 234.9 187.024C234.388 187.493 234.095 188.144 234.02 188.976H239.556Z" fill="black"/>
</svg>
