<svg width="28" height="28" viewBox="0 0 28 28" fill="none" xmlns="http://www.w3.org/2000/svg">
<path d="M19.512 5.89541C19.8189 6.10445 20.0302 6.42684 20.0993 6.79165C20.1685 7.15647 20.09 7.53382 19.8809 7.84071C19.6719 8.14759 19.3495 8.35886 18.9847 8.42804C18.6198 8.49722 18.2425 8.41865 17.9356 8.2096C16.6431 7.33095 15.0937 6.91011 13.5343 7.01414C11.9749 7.11817 10.4951 7.74108 9.33074 8.78363C8.16639 9.82618 7.38442 11.2284 7.10942 12.7669C6.83442 14.3054 7.0822 15.8917 7.81329 17.2731C8.54438 18.6544 9.71672 19.7514 11.1436 20.3892C12.5704 21.027 14.1696 21.169 15.6865 20.7925C17.2034 20.416 18.5506 19.5427 19.5136 18.3117C20.4766 17.0807 20.9999 15.5629 21.0002 14C21.0002 13.6287 21.1477 13.2726 21.4103 13.0101C21.6728 12.7475 22.0289 12.6 22.4002 12.6C22.7715 12.6 23.1276 12.7475 23.3902 13.0101C23.6527 13.2726 23.8002 13.6287 23.8002 14C23.7999 16.1882 23.0672 18.3133 21.719 20.0368C20.3707 21.7603 18.4844 22.9829 16.3607 23.51C14.2369 24.037 11.9978 23.8381 10.0002 22.945C8.0026 22.0519 6.36136 20.5159 5.338 18.5817C4.31463 16.6476 3.96802 14.4266 4.35338 12.2726C4.73874 10.1186 5.8339 8.15558 7.46438 6.69623C9.09486 5.23689 11.1669 4.36521 13.3502 4.22007C15.5336 4.07494 17.7027 4.66471 19.512 5.89541Z" fill="black"/>
<path d="M18.9546 17.5084C18.7997 17.6075 18.6268 17.6751 18.4458 17.7073C18.2648 17.7396 18.0792 17.7359 17.8996 17.6965C17.72 17.657 17.5499 17.5826 17.3991 17.4774C17.2483 17.3722 17.1196 17.2384 17.0205 17.0835C16.9214 16.9286 16.8538 16.7557 16.8215 16.5746C16.7893 16.3936 16.793 16.208 16.8324 16.0284C16.8719 15.8488 16.9463 15.6787 17.0515 15.5279C17.1567 15.3771 17.2905 15.2485 17.4454 15.1494L22.3202 12.0316C22.633 11.838 23.0093 11.7753 23.3679 11.857C23.7265 11.9387 24.0385 12.1582 24.2366 12.468C24.4347 12.7779 24.5028 13.1533 24.4264 13.5131C24.3499 13.8728 24.135 14.188 23.828 14.3906L18.9546 17.5084Z" fill="black"/>
<path d="M26.4645 17.3741C26.6074 17.7117 26.6122 18.0919 26.4778 18.433C26.3435 18.7741 26.0806 19.0489 25.7459 19.1983C25.4111 19.3477 25.0311 19.3598 24.6874 19.2321C24.3438 19.1044 24.064 18.8469 23.9081 18.5151L21.7969 13.7831C21.7178 13.6146 21.673 13.4321 21.6653 13.2461C21.6575 13.0601 21.6869 12.8745 21.7518 12.7C21.8167 12.5255 21.9157 12.3658 22.043 12.23C22.1704 12.0943 22.3235 11.9853 22.4935 11.9094C22.6634 11.8335 22.8468 11.7923 23.0329 11.7882C23.219 11.784 23.404 11.8171 23.5772 11.8853C23.7504 11.9535 23.9082 12.0556 24.0415 12.1855C24.1747 12.3155 24.2808 12.4707 24.3533 12.6421L26.4645 17.3741Z" fill="black"/>
</svg>
